<?xml version="1.0" encoding="utf-8"?>
<!-- Generator: Adobe Illustrator 17.0.0, SVG Export Plug-In . SVG Version: 6.00 Build 0)  -->
<!DOCTYPE svg PUBLIC "-//W3C//DTD SVG 1.1//EN" "http://www.w3.org/Graphics/SVG/1.1/DTD/svg11.dtd">
<svg version="1.1" id="Layer_1" xmlns="http://www.w3.org/2000/svg" xmlns:xlink="http://www.w3.org/1999/xlink" x="0px" y="0px"
	 width="264px" height="88px" viewBox="0 0 264 88" enable-background="new 0 0 264 88" xml:space="preserve">
<title>default-skin 2</title>
<g>
	<g>
		<path id="Shape" fill="#333333" d="M67.503,57.812v4.71C59.619,63.573,56.022,69.71,55,74.688
			c2.775-3.538,6.955-6.372,12.503-6.372v4.497L75,65.419L67.503,57.812z"/>
	</g>
</g>
<path fill="#333333" d="M151.215,74.999l1.785-1.53l-6-6.5h18v-2h-18l6-6.5l-1.785-1.468L143,65.969L151.215,74.999z"/>
<path fill="#333333" d="M112.785,57.001L111,58.531l6,6.5H99v2h18l-6,6.5l1.785,1.468L121,66.031L112.785,57.001z"/>
<path fill="#333333" d="M20.586,66L13,58.414L14.414,57L22,64.586L29.586,57L31,58.414L23.414,66L31,73.586L29.586,75L22,67.414
	L14.414,75L13,73.586L20.586,66z"/>
<g>
	<polygon fill="#333333" points="25.111,13 25.111,15 27.586,15 23.071,19.516 24.485,20.93 29,16.414 29,18.889 31,18.889 31,13 	
		"/>
	<polygon fill="#333333" points="19.515,23.071 15,27.586 15,25.111 13,25.111 13,31 18.889,31 18.889,29 16.414,29 20.929,24.485 	
		"/>
	<polygon fill="#333333" points="29,27.586 24.485,23.071 23.071,24.485 27.586,29 25.111,29 25.111,31 31,31 31,25.111 29,25.111 	
		"/>
	<polygon fill="#333333" points="18.889,15 18.889,13 13,13 13,18.889 15,18.889 15,16.414 19.515,20.93 20.929,19.516 16.414,15 	
		"/>
</g>
<g>
	<polygon fill="#333333" points="63.222,17.808 58.414,13.293 57,14.707 61.808,19.222 59.333,19.222 59.333,20.722 64.722,20.722 
		64.722,15.333 63.222,15.333 	"/>
	<polygon fill="#333333" points="72.667,24.778 72.667,23.278 67.278,23.278 67.278,28.667 68.778,28.667 68.778,26.192 73.586,31 
		75,29.586 70.192,24.778 	"/>
	<polygon fill="#333333" points="72.667,19.222 70.192,19.222 75,14.414 73.586,13 68.778,17.808 68.778,15.333 67.278,15.333 
		67.278,20.722 72.667,20.722 	"/>
	<polygon fill="#333333" points="59.333,24.778 61.808,24.778 57,29.637 58.414,31.051 63.222,26.192 63.222,28.667 64.722,28.667 
		64.722,23.278 59.333,23.278 	"/>
</g>
<g>
	<path fill="#333333" d="M118.854,29.637l-4.728-4.728c1.038-1.264,1.663-2.88,1.663-4.639c0-4.037-3.284-7.321-7.321-7.321
		c-4.037,0-7.321,3.284-7.321,7.321c0,4.037,3.284,7.321,7.321,7.321c1.557,0,3-0.492,4.188-1.325l4.785,4.785L118.854,29.637z
		 M103.146,20.27c0-2.934,2.387-5.321,5.321-5.321s5.321,2.387,5.321,5.321s-2.387,5.321-5.321,5.321S103.146,23.204,103.146,20.27z
		"/>
	<polygon fill="#333333" points="109.467,17.11 107.467,17.11 107.467,19.27 105.307,19.27 105.307,21.27 107.467,21.27 
		107.467,23.43 109.467,23.43 109.467,21.27 111.628,21.27 111.628,19.27 109.467,19.27 	"/>
</g>
<g>
	<path fill="#333333" d="M162.781,29.637l-4.728-4.728c1.038-1.264,1.663-2.88,1.663-4.639c0-4.037-3.284-7.321-7.321-7.321
		c-4.037,0-7.321,3.284-7.321,7.321c0,4.037,3.284,7.321,7.321,7.321c1.557,0,3-0.492,4.188-1.325l4.785,4.785L162.781,29.637z
		 M147.074,20.27c0-2.934,2.387-5.321,5.321-5.321s5.321,2.387,5.321,5.321s-2.387,5.321-5.321,5.321S147.074,23.204,147.074,20.27z
		"/>
	<polyline fill="#333333" points="149.235,21.27 149.235,19.27 155.556,19.27 155.556,21.27 	"/>
</g>
</svg>
